<svg class="animated" id="freepik_stories-cute-ghost" xmlns="http://www.w3.org/2000/svg" viewBox="0 0 500 500" version="1.1" xmlns:xlink="http://www.w3.org/1999/xlink" xmlns:svgjs="http://svgjs.com/svgjs"><style>svg#freepik_stories-cute-ghost:not(.animated) .animable {opacity: 0;}svg#freepik_stories-cute-ghost.animated #freepik--clouds-2--inject-67 {animation: 1s 1 forwards cubic-bezier(.36,-0.01,.5,1.38) slideLeft,6s Infinite  linear shake;animation-delay: 0s,1s;}svg#freepik_stories-cute-ghost.animated #freepik--clouds-1--inject-67 {animation: 1s 1 forwards cubic-bezier(.36,-0.01,.5,1.38) slideLeft,6s Infinite  linear shake;animation-delay: 0s,2s;}svg#freepik_stories-cute-ghost.animated #freepik--Ghost--inject-67 {animation: 1s 1 forwards cubic-bezier(.36,-0.01,.5,1.38) slideLeft,3s Infinite  linear floating;animation-delay: 0s,1s;}            @keyframes slideLeft {                0% {                    opacity: 0;                    transform: translateX(-30px);                }                100% {                    opacity: 1;                    transform: translateX(0);                }            }                    @keyframes shake {                10%, 90% {                    transform: translate3d(-1px, 0, 0);                  }                  20%, 80% {                    transform: translate3d(2px, 0, 0);                  }                  30%, 50%, 70% {                    transform: translate3d(-4px, 0, 0);                  }                  40%, 60% {                    transform: translate3d(4px, 0, 0);                  }            }                    @keyframes floating {                0% {                    opacity: 1;                    transform: translateY(0px);                }                50% {                    transform: translateY(-10px);                }                100% {                    opacity: 1;                    transform: translateY(0px);                }            }        .animator-hidden { display: none; }</style><g id="freepik--clouds-2--inject-67" class="animable" style="transform-origin: 177.4px 251.275px;"><g id="elhoopxlla9s"><g style="opacity: 0.3; transform-origin: 177.4px 254.844px;" class="animable"><path d="M329.32,287.6c-14.12-7.7-20.54-1.28-25.68-7.7s14.12-23.11-24.39-39.8c0,0-2.57-35.95-55.21-37.24s-38.52,35.95-52.64,44.94-18-5.14-32.1,3.85-7.7,27-19.26,29.53-27-11.55-41.08-2.57S64.84,295.3,58.42,295.3s-19.26-5.13-27,0-16.69,11.56-16.69,11.56H339.59S343.44,295.3,329.32,287.6Z" id="elb7b5bhfmve" class="animable" style="transform-origin: 177.4px 254.844px;"></path><g id="elfjz67g676v6"><g style="opacity: 0.5; transform-origin: 177.4px 254.844px;" class="animable"><path d="M329.32,287.6c-14.12-7.7-20.54-1.28-25.68-7.7s14.12-23.11-24.39-39.8c0,0-2.57-35.95-55.21-37.24s-38.52,35.95-52.64,44.94-18-5.14-32.1,3.85-7.7,27-19.26,29.53-27-11.55-41.08-2.57S64.84,295.3,58.42,295.3s-19.26-5.13-27,0-16.69,11.56-16.69,11.56H339.59S343.44,295.3,329.32,287.6Z" id="ellnev8fu75f" class="animable" style="transform-origin: 177.4px 254.844px;"></path></g></g></g></g><g id="elr0uy3l9fp0p"><g style="opacity: 0.3; transform-origin: 79.3922px 212.465px;" class="animable"><path d="M128.32,223c-4.54-2.48-6.61-.41-8.27-2.48s4.55-7.44-7.85-12.82c0,0-.83-11.58-17.79-12s-12.4,11.58-17,14.47-5.79-1.65-10.34,1.24-2.49,8.69-6.21,9.52-8.68-3.73-13.23-.83-4.55,5.38-6.62,5.38-6.2-1.66-8.68,0S27,229.24,27,229.24H131.63S132.87,225.52,128.32,223Z" id="elg8y4v9j9o7i" class="animable" style="transform-origin: 79.3922px 212.465px;"></path><g id="elxqex7sa19hl"><g style="opacity: 0.5; transform-origin: 79.3922px 212.465px;" class="animable"><path d="M128.32,223c-4.54-2.48-6.61-.41-8.27-2.48s4.55-7.44-7.85-12.82c0,0-.83-11.58-17.79-12s-12.4,11.58-17,14.47-5.79-1.65-10.34,1.24-2.49,8.69-6.21,9.52-8.68-3.73-13.23-.83-4.55,5.38-6.62,5.38-6.2-1.66-8.68,0S27,229.24,27,229.24H131.63S132.87,225.52,128.32,223Z" id="elo1eh84d7kk8" class="animable" style="transform-origin: 79.3922px 212.465px;"></path></g></g></g></g></g><g id="freepik--Moon--inject-67" class="animable animator-hidden" style="transform-origin: 160.52px 133.48px;"><g id="ele6dmnszwsep"><circle cx="160.52" cy="133.48" r="93.61" style="fill: rgb(242, 242, 242); stroke: rgb(255, 255, 255); stroke-miterlimit: 10; stroke-width: 2px; transform-origin: 160.52px 133.48px; transform: rotate(-45deg);" class="animable"></circle></g><ellipse cx="104.46" cy="130.36" rx="24.5" ry="26" style="fill: rgb(227, 227, 227); transform-origin: 104.46px 130.36px;" id="elj0q2qkvfmzb" class="animable"></ellipse><circle cx="146.46" cy="77.86" r="20.5" style="fill: rgb(227, 227, 227); transform-origin: 146.46px 77.86px;" id="elm9llmb7t6s" class="animable"></circle><ellipse cx="146.46" cy="158.36" rx="10.5" ry="12" style="fill: rgb(227, 227, 227); transform-origin: 146.46px 158.36px;" id="elc3uz664fm5l" class="animable"></ellipse><ellipse cx="108.46" cy="179.36" rx="8.5" ry="8" style="fill: rgb(227, 227, 227); transform-origin: 108.46px 179.36px;" id="el3m38pxmnqkl" class="animable"></ellipse><ellipse cx="177.46" cy="103.86" rx="11.5" ry="10.5" style="fill: rgb(227, 227, 227); transform-origin: 177.46px 103.86px;" id="el5r9589w2eh2" class="animable"></ellipse><circle cx="181.96" cy="67.36" r="6" style="fill: rgb(227, 227, 227); transform-origin: 181.96px 67.36px;" id="ellsp3jp4m0zr" class="animable"></circle><ellipse cx="99.46" cy="85.86" rx="9.5" ry="8.5" style="fill: rgb(227, 227, 227); transform-origin: 99.46px 85.86px;" id="elj2e8d4e1z7o" class="animable"></ellipse><ellipse cx="147.72" cy="119.74" rx="12.8" ry="13.75" style="fill: rgb(227, 227, 227); transform-origin: 147.72px 119.74px;" id="el5a637xdhyea" class="animable"></ellipse><g id="elryqa1lrqtig"><ellipse cx="137.04" cy="193.89" rx="12.53" ry="17.08" style="fill: rgb(227, 227, 227); transform-origin: 137.04px 193.89px; transform: rotate(-64.17deg);" class="animable"></ellipse></g></g><g id="freepik--clouds-1--inject-67" class="animable" style="transform-origin: 305.087px 206.714px;"><g id="el0q1cu8ognm2q"><g style="opacity: 0.3; transform-origin: 404.907px 349.773px;" class="animable"><path d="M466.37,363c-5.71-3.11-8.31-.52-10.39-3.11s5.72-9.35-9.87-16.11c0,0-1-14.54-22.33-15.06s-15.59,14.54-21.3,18.18-7.27-2.08-13,1.56-3.12,10.91-7.79,11.95-10.91-4.68-16.63-1-5.71,6.75-8.31,6.75-7.79-2.08-10.91,0-6.75,4.68-6.75,4.68H470.53S472.09,366.07,466.37,363Z" id="ell00h5j8odgg" class="animable" style="transform-origin: 404.907px 349.773px;"></path><g id="elsmf29hrisv8"><g style="opacity: 0.5; transform-origin: 404.907px 349.773px;" class="animable"><path d="M466.37,363c-5.71-3.11-8.31-.52-10.39-3.11s5.72-9.35-9.87-16.11c0,0-1-14.54-22.33-15.06s-15.59,14.54-21.3,18.18-7.27-2.08-13,1.56-3.12,10.91-7.79,11.95-10.91-4.68-16.63-1-5.71,6.75-8.31,6.75-7.79-2.08-10.91,0-6.75,4.68-6.75,4.68H470.53S472.09,366.07,466.37,363Z" id="elg8sugf1uyv" class="animable" style="transform-origin: 404.907px 349.773px;"></path></g></g></g></g><g id="elqvpnc6ir4xk"><g style="opacity: 0.3; transform-origin: 253.073px 78.9191px;" class="animable"><path d="M359.19,101.79c-9.87-5.38-14.35-.89-17.94-5.38s9.86-16.14-17-27.8c0,0-1.8-25.12-38.57-26S258.73,67.71,248.87,74s-12.56-3.59-22.43,2.69S221.06,95.52,213,97.31s-18.84-8.07-28.7-1.79-9.87,11.66-14.35,11.66-13.46-3.59-18.84,0-11.66,8.07-11.66,8.07H366.36S369.05,107.18,359.19,101.79Z" id="elh4tdcxalyam" class="animable" style="transform-origin: 253.073px 78.9191px;"></path><g id="el2dglad0ngtr"><g style="opacity: 0.5; transform-origin: 253.073px 78.9191px;" class="animable"><path d="M359.19,101.79c-9.87-5.38-14.35-.89-17.94-5.38s9.86-16.14-17-27.8c0,0-1.8-25.12-38.57-26S258.73,67.71,248.87,74s-12.56-3.59-22.43,2.69S221.06,95.52,213,97.31s-18.84-8.07-28.7-1.79-9.87,11.66-14.35,11.66-13.46-3.59-18.84,0-11.66,8.07-11.66,8.07H366.36S369.05,107.18,359.19,101.79Z" id="el8m21on6u4yn" class="animable" style="transform-origin: 253.073px 78.9191px;"></path></g></g></g></g></g><g id="freepik--Ghost--inject-67" class="animable animator-active" style="transform-origin: 267.126px 297.211px;"><path d="M280.54,326.37S275,342,272.51,350s-.85,11.42,5.49,11,33-18.6,44-45.23" style="fill: rgb(181, 181, 181); stroke: rgb(38, 50, 56); stroke-linecap: round; stroke-linejoin: round; transform-origin: 296.7px 338.402px;" id="el4zxwfqgebvx" class="animable"></path><path d="M218.13,380c-6.95,10.57-11.76,22.29-13.22,32.82-4.13,29.77,17.41,57.35,48.11,61.61s58.93-16.44,63-46.21a75.91,75.91,0,0,0-1-24.43Z" style="fill: rgb(181, 109, 243); stroke: rgb(38, 50, 56); stroke-linecap: round; stroke-linejoin: round; transform-origin: 260.488px 427.493px;" id="elummx402c2e" class="animable"></path><path d="M247.87,411.91s-11.37-11-13.8-11.33-4.45,16,.08,19.09,15.82-3.26,15.78-4.75S247.87,411.91,247.87,411.91Z" style="fill: rgb(38, 50, 56); stroke: rgb(38, 50, 56); stroke-linecap: round; stroke-linejoin: round; transform-origin: 240.691px 410.541px;" id="elzxmfqaikiyg" class="animable"></path><path d="M272.3,417.73s15.6-2.59,17.79-1.48-5.43,15.68-10.92,15.66S268,420.24,268.89,419,272.3,417.73,272.3,417.73Z" style="fill: rgb(38, 50, 56); stroke: rgb(38, 50, 56); stroke-linecap: round; stroke-linejoin: round; transform-origin: 279.636px 423.942px;" id="elu0ef1igp3vi" class="animable"></path><path d="M223.45,419.46s-.86,13.74-.08,15.56,5.66.16,6.28,1.22.64,7.25,3.48,8.32,12.82.26,12.82.26,7.26,7.76,10.13,8.59,11.65-4.57,11.65-4.57,9.74,3.36,11.56,2.58S289.52,440,291.49,438s-9.62,4.07-12.15,4.52-9.2-3.79-10.69-3.72-12,1.08-13.23,1.18S244,432,242.8,431.6s-7.3,1.12-8,.79S223.45,419.46,223.45,419.46Z" style="fill: rgb(38, 50, 56); stroke: rgb(38, 50, 56); stroke-linecap: round; stroke-linejoin: round; transform-origin: 257.379px 436.478px;" id="el6n494oxypv7" class="animable"></path><path d="M257.12,416.66s-8.46,9.24-7.52,11.35,10.23,4.89,11.16,3.53-.12-11.67-1.1-13.54A2.15,2.15,0,0,0,257.12,416.66Z" style="fill: rgb(38, 50, 56); stroke: rgb(38, 50, 56); stroke-linecap: round; stroke-linejoin: round; transform-origin: 255.324px 424.248px;" id="eltj9yuq6phqo" class="animable"></path><path d="M315.07,403.6c-.9,3.75-23.35,1.59-50.15-4.82S217.13,384.14,218,380.4s23.35-1.59,50.15,4.81S316,399.85,315.07,403.6Z" style="fill: rgb(38, 50, 56); stroke: rgb(38, 50, 56); stroke-linecap: round; stroke-linejoin: round; transform-origin: 266.537px 392.002px;" id="elal33sc5vto5" class="animable"></path><path d="M271,388c-6.61-.91-12.55,2.58-13.27,7.8a7.47,7.47,0,0,0-.07,1.15c2.38.62,4.82,1.24,7.31,1.83,5.42,1.3,10.66,2.42,15.58,3.35a7.6,7.6,0,0,0,1.11-3C282.33,393.9,277.56,388.92,271,388Z" style="fill: rgb(181, 109, 243); stroke: rgb(38, 50, 56); stroke-linecap: round; stroke-linejoin: round; transform-origin: 269.691px 394.993px;" id="eloek11vfqzn" class="animable"></path><path d="M218,380.4s15.58-44.4,60-35.85,37.09,59.05,37.09,59.05" style="fill: none; stroke: rgb(38, 50, 56); stroke-linecap: round; stroke-linejoin: round; transform-origin: 266.771px 373.528px;" id="elz3zlmsddowt" class="animable"></path><path d="M294,390.8s-8.33-3.71-11-4.67a3.18,3.18,0,0,0-3.85.85,11.66,11.66,0,0,1-4.34-2.77c-1.52-1.78-5.25-3.28-4.94-1.27s3.49,3.23,3.49,3.23-5.38-.94-4.9,1.29,4.78,2.44,4.78,2.44-4.51,2.71-1.92,3.86,6.58-2,6.58-2-1.22,3.18,2.64,5.09,9,4.59,10.85,4.06a5.63,5.63,0,0,0,2.91-2.55s3.82,3.68,4.73,5.58,3.78-.27,3.14-1.34a17.54,17.54,0,0,0-2.38-2.69s2.82,2.36,3.55-.1-2.18-2.66-2.18-2.66,3.54-1.48,2.43-3.4-7.46,1.33-7.46,1.33S297.48,392.47,294,390.8Z" style="fill: rgb(181, 109, 243); stroke: rgb(38, 50, 56); stroke-linecap: round; stroke-linejoin: round; transform-origin: 286.118px 393.336px;" id="elqw6glkfn9y" class="animable"></path><path d="M231.66,377.54s3.85,8.27,5.2,10.72a3.75,3.75,0,0,0,1.68,1.67l.66.21a2.78,2.78,0,0,0,1.12,0l.21.41c2.29.73,4.73,1.5,7,2.18a9.7,9.7,0,0,0-.81-.9s5.19.91,4-1.66-6.3-2.78-6.3-2.78,3-1.59,1.36-5.57-3.77-9.38-5.51-10.19a5.62,5.62,0,0,0-3.87,0s-.46-5.28.1-7.32-3-2.28-3.25-1.05a17.48,17.48,0,0,0,0,3.59s-.58-3.63-2.74-2.26-.1,3.45-.1,3.45-3.65-1.22-4.08,1,6.5,3.9,6.5,3.9S230.11,374,231.66,377.54Z" style="fill: rgb(181, 109, 243); stroke: rgb(38, 50, 56); stroke-linecap: round; stroke-linejoin: round; transform-origin: 238.604px 377.62px;" id="elxb5ed4jhaka" class="animable"></path><path d="M253.59,395.91a5.29,5.29,0,0,0,1.86-2.28c1.84-3.9,4.42-9.08,3.85-10.92a5.6,5.6,0,0,0-2.6-2.86s3.61-3.89,5.49-4.84-.34-3.77-1.4-3.11a17.31,17.31,0,0,0-2.64,2.43s2.3-2.86-.17-3.55-2.62,2.24-2.62,2.24-1.54-3.52-3.44-2.38,1.46,7.44,1.46,7.44-2.59-1.29-4.19,2.25c0,0-3.56,8.4-4.46,11a3.79,3.79,0,0,0-.17,2.08Z" style="fill: rgb(181, 109, 243); stroke: rgb(38, 50, 56); stroke-linecap: round; stroke-linejoin: round; transform-origin: 253.703px 383.161px;" id="el0hph5a92mat7" class="animable"></path><path d="M267.58,399.43s6.48-6.87,9-6.9,3.92,1.52,3.82,3.67-3.87,5.17-3.87,5.17Z" style="fill: rgb(153, 153, 153); stroke: rgb(38, 50, 56); stroke-linecap: round; stroke-linejoin: round; transform-origin: 273.992px 396.95px;" id="elc8003sjxj3a" class="animable"></path><path d="M278.5,393.18s-1.52-6.11-.09-6.5,1.72,1.81,2.33,1.7,3.21-3.3,4.12-1.4-.86,3.42-.86,3.42,4.18-1.78,3.86.54-7.13,3.14-7.13,3.14Z" style="fill: rgb(153, 153, 153); stroke: rgb(38, 50, 56); stroke-linecap: round; stroke-linejoin: round; transform-origin: 282.837px 390.229px;" id="el75nuww8sfeg" class="animable"></path><path d="M238.79,381.58c-5.07-.7-9.77,1.52-12,5.23a184.06,184.06,0,0,0,22.12,7.74c.08-.33.15-.67.2-1C249.93,387.83,245.3,382.48,238.79,381.58Z" style="fill: rgb(153, 153, 153); stroke: rgb(38, 50, 56); stroke-linecap: round; stroke-linejoin: round; transform-origin: 237.997px 388.001px;" id="elagyafs9my8q" class="animable"></path><g id="el77trnlkonmq"><circle cx="267.32" cy="384.39" r="10.13" style="fill: rgb(255, 255, 255); stroke: rgb(38, 50, 56); stroke-linecap: round; stroke-linejoin: round; transform-origin: 267.32px 384.39px; transform: rotate(-87.05deg);" class="animable"></circle></g><line x1="261.6" y1="393.47" x2="259.58" y2="397.64" style="fill: rgb(255, 255, 255); stroke: rgb(38, 50, 56); stroke-linecap: round; stroke-linejoin: round; transform-origin: 260.59px 395.555px;" id="eldscsram8pfr" class="animable"></line><path d="M271.16,388.62a5.64,5.64,0,1,1,.42-8A5.64,5.64,0,0,1,271.16,388.62Z" style="fill: rgb(181, 109, 243); stroke: rgb(38, 50, 56); stroke-linecap: round; stroke-linejoin: round; transform-origin: 267.405px 384.412px;" id="elhf369khkp6" class="animable"></path><path d="M268.65,386.15a1.92,1.92,0,1,1,.15-2.71A1.91,1.91,0,0,1,268.65,386.15Z" style="fill: rgb(255, 255, 255); stroke: rgb(38, 50, 56); stroke-linecap: round; stroke-linejoin: round; transform-origin: 267.371px 384.72px;" id="elww4dhoo513h" class="animable"></path><path d="M299.6,405a6.69,6.69,0,0,0,1.3-3.1c.61-4.42-3.39-8.63-8.93-9.4s-10.53,2.19-11.15,6.62a6.6,6.6,0,0,0,.34,3.15C288.1,403.56,294.38,404.48,299.6,405Z" style="fill: rgb(255, 255, 255); stroke: rgb(38, 50, 56); stroke-linecap: round; stroke-linejoin: round; transform-origin: 290.861px 398.689px;" id="elqhyjecw8dri" class="animable"></path><path d="M297.45,394.69a10.76,10.76,0,0,0-2-1.19l-11.19,9.32,2.85.48Z" style="fill: rgb(38, 50, 56); transform-origin: 290.855px 398.4px;" id="el3penv8f6w2c" class="animable"></path><path d="M281.16,402.26l.39.07L293,392.67q-.5-.1-1-.18a12.78,12.78,0,0,0-2-.12l-9.17,7.74A6.91,6.91,0,0,0,281.16,402.26Z" style="fill: rgb(38, 50, 56); transform-origin: 286.915px 397.349px;" id="elnrywen1m16" class="animable"></path><path d="M300.21,397.9a8.43,8.43,0,0,0-1.25-1.82l-9.07,7.67,2.9.42Z" style="fill: rgb(38, 50, 56); transform-origin: 295.05px 400.125px;" id="el7wdr74z044u" class="animable"></path><path d="M300.41,403.59a6.52,6.52,0,0,0,.49-1.7,6.85,6.85,0,0,0,0-1.81l-4.7,4.53c1,.12,1.92.23,2.84.32Z" style="fill: rgb(38, 50, 56); transform-origin: 298.58px 402.505px;" id="eln0vlflreql" class="animable"></path><path d="M196,213c-9.89,10-18.15,21.45-26.45,33.08-7.79,10.9-15.46,21.9-23.19,32.86a9.8,9.8,0,0,0-1.92,3.79c-.57,3.2,2.26,6.2,5.4,7s6.45.06,9.6-.72L134.19,316.3a11.82,11.82,0,0,0-2.87,4.16c-1.51,4.66,3.06,9.07,7.55,11,9.78,4.28,21,3.58,31.5,1.68a4.77,4.77,0,0,1,3.13.13c2.53,1.38.7,5.12.13,7.95-.88,4.43,2.64,8.78,6.85,10.43s8.9,1.26,13.39.84c42-3.88,85.16-8.3,122.5-27.89,14.94-7.84,29.05-18.46,37.27-33.19,6.78-12.18,9.11-26.54,8-40.44-1.75-21.36-11.91-42.18-28.57-55.67-18.59-15.06-44-20.15-67.71-17.06a120.6,120.6,0,0,0-54.62,22A117.43,117.43,0,0,0,196,213Z" style="fill: rgb(255, 255, 255); stroke: rgb(38, 50, 56); stroke-linecap: round; stroke-linejoin: round; transform-origin: 246.465px 265.116px;" id="eliv73836uvt9" class="animable"></path><path d="M219.43,310.44s16.91,35.93,31.7,46.92,23.26,6.77,23.68,2.54-.85-48.19-.85-48.19" style="fill: rgb(255, 255, 255); stroke: rgb(38, 50, 56); stroke-linecap: round; stroke-linejoin: round; transform-origin: 247.163px 337.397px;" id="el3ibjp06ey9e" class="animable"></path><path d="M302.07,234.66c0,4-2.27,7.19-5.08,7.19s-5.07-3.22-5.07-7.19,2.27-7.18,5.07-7.18S302.07,230.7,302.07,234.66Z" style="fill: rgb(38, 50, 56); stroke: rgb(38, 50, 56); stroke-linecap: round; stroke-linejoin: round; transform-origin: 296.995px 234.665px;" id="el1zd8fldxehz" class="animable"></path><path d="M342.46,238c0,4.17-1.75,7.56-3.92,7.56s-3.92-3.39-3.92-7.56,1.75-7.57,3.92-7.57S342.46,233.83,342.46,238Z" style="fill: rgb(38, 50, 56); stroke: rgb(38, 50, 56); stroke-linecap: round; stroke-linejoin: round; transform-origin: 338.54px 237.995px;" id="elcvi3kpznk08" class="animable"></path><path d="M301.64,252s15.22,12.26,28.33,2.11c0,0-5.92,11.84-14.38,12.68S302.49,258.76,301.64,252Z" style="fill: rgb(255, 255, 255); stroke: rgb(38, 50, 56); stroke-linecap: round; stroke-linejoin: round; transform-origin: 315.805px 259.423px;" id="elodtixg6b2ng" class="animable"></path><path d="M291.89,250c-.3,4.31-5.54,7.45-11.72,7s-10.93-4.27-10.63-8.58,5.55-7.45,11.72-7S292.19,245.72,291.89,250Z" style="fill: rgb(181, 109, 243); transform-origin: 280.715px 249.21px;" id="el3dhtd9ecdr" class="animable"></path><path d="M354.52,258.39c-.25,3.67-4.17,6.39-8.75,6.07s-8.08-3.56-7.82-7.23,4.17-6.39,8.75-6.07S354.78,254.71,354.52,258.39Z" style="fill: rgb(181, 109, 243); transform-origin: 346.235px 257.81px;" id="el1k4sl8ulc7o" class="animable"></path><path d="M297,231.74c0,1.61-.86,2.92-1.93,2.92s-1.93-1.31-1.93-2.92.87-2.93,1.93-2.93S297,230.12,297,231.74Z" style="fill: rgb(255, 255, 255); transform-origin: 295.07px 231.735px;" id="elzd9ykcu7rz8" class="animable"></path><ellipse cx="336.87" cy="235.18" rx="1.93" ry="2.93" style="fill: rgb(255, 255, 255); transform-origin: 336.87px 235.18px;" id="elw36hrxwnmg" class="animable"></ellipse><path d="M210.71,120a51.09,51.09,0,0,0-21.06,5.36c-10.34,5.36-23.74,18.76-19.91,22.59s8.42-1.15,16.08-6.51,23.36-6.51,33.31,0,5.36,26.42,3.07,33.32-8,18.38-10,19.53-18.38,5.74-32.93,7.65-31,6.13-45.57,17.62-18,34.84-8,31.4,10.34-14.55,28-24.51,35.23,3.45,63.57-.38S272,210,311,203.51s63.57-4.6,79.65,5,28.34,6.9,21.83-4.59-29.49-19.15-45.19-20.3-31.78,1.92-54.37-8-50.93-39.82-67-49.39S210.71,120,210.71,120Z" style="fill: rgb(38, 50, 56); stroke: rgb(38, 50, 56); stroke-linecap: round; stroke-linejoin: round; transform-origin: 267.126px 185.369px;" id="el5dthyfpjyze" class="animable"></path><path d="M313,175.55c-6.18-2.72-12.79-6.94-19.46-11.82-10.5-1.44-25.22-2.56-35.68.34-12.15,3.36-25.16,9.5-36.58,13.38-2.66,6.84-7.3,15.86-9,16.87,0,0,11.87,1.14,39.06-9.58s71.6-5,71.6-5l5,1.14.29-.21A87.62,87.62,0,0,1,313,175.55Z" style="fill: rgb(181, 109, 243); stroke: rgb(38, 50, 56); stroke-linecap: round; stroke-linejoin: round; transform-origin: 270.255px 178.307px;" id="elkqjxx7hnqnk" class="animable"></path><path d="M257,161.39l-25.65,10.33,5,20.68,29.87-9.57Zm-21.78,11.48,20-8,7.15,16.68L239.13,189Z" style="fill: rgb(255, 255, 255); stroke: rgb(38, 50, 56); stroke-linecap: round; stroke-linejoin: round; transform-origin: 248.785px 176.895px;" id="elqyo42app2fq" class="animable"></path></g><defs>     <filter id="active" height="200%">         <feMorphology in="SourceAlpha" result="DILATED" operator="dilate" radius="2"></feMorphology>                <feFlood flood-color="#32DFEC" flood-opacity="1" result="PINK"></feFlood>        <feComposite in="PINK" in2="DILATED" operator="in" result="OUTLINE"></feComposite>        <feMerge>            <feMergeNode in="OUTLINE"></feMergeNode>            <feMergeNode in="SourceGraphic"></feMergeNode>        </feMerge>    </filter>    <filter id="hover" height="200%">        <feMorphology in="SourceAlpha" result="DILATED" operator="dilate" radius="2"></feMorphology>                <feFlood flood-color="#ff0000" flood-opacity="0.5" result="PINK"></feFlood>        <feComposite in="PINK" in2="DILATED" operator="in" result="OUTLINE"></feComposite>        <feMerge>            <feMergeNode in="OUTLINE"></feMergeNode>            <feMergeNode in="SourceGraphic"></feMergeNode>        </feMerge>            <feColorMatrix type="matrix" values="0   0   0   0   0                0   1   0   0   0                0   0   0   0   0                0   0   0   1   0 "></feColorMatrix>    </filter></defs></svg>