<svg class="animated" id="freepik_stories-cute-ghost" xmlns="http://www.w3.org/2000/svg" viewBox="0 0 500 500" version="1.1" xmlns:xlink="http://www.w3.org/1999/xlink" xmlns:svgjs="http://svgjs.com/svgjs"><style>svg#freepik_stories-cute-ghost:not(.animated) .animable {opacity: 0;}svg#freepik_stories-cute-ghost.animated #freepik--Shadow--inject-65 {animation: 1s 1 forwards cubic-bezier(.36,-0.01,.5,1.38) fadeIn;animation-delay: 0s;}svg#freepik_stories-cute-ghost.animated #freepik--Speech_Bubble--inject-65 {animation: 1s 1 forwards cubic-bezier(.36,-0.01,.5,1.38) fadeIn;animation-delay: 1s;opacity: 0}svg#freepik_stories-cute-ghost.animated #freepik--Ghost_2--inject-65 {animation: 1s 1 forwards cubic-bezier(.36,-0.01,.5,1.38) slideRight;animation-delay: 0s;}svg#freepik_stories-cute-ghost.animated #freepik--Ghost_1--inject-65 {animation: 0.9s 1 forwards ease-out slideLeft,1.5s Infinite  linear floating;animation-delay: 0s,0.9s;}            @keyframes fadeIn {                0% {                    opacity: 0;                }                100% {                    opacity: 1;                }            }                    @keyframes slideRight {                0% {                    opacity: 0;                    transform: translateX(30px);                }                100% {                    opacity: 1;                    transform: translateX(0);                }            }                    @keyframes slideLeft {                0% {                    opacity: 0;                    transform: translateX(-30px);                }                100% {                    opacity: 1;                    transform: translateX(0);                }            }                    @keyframes floating {                0% {                    opacity: 1;                    transform: translateY(0px);                }                50% {                    transform: translateY(-10px);                }                100% {                    opacity: 1;                    transform: translateY(0px);                }            }        .animator-hidden { display: none; }</style><g id="freepik--background-simple--inject-65" class="animable animator-hidden" style="transform-origin: 258.758px 234.171px;"><g id="elbuey0kfcnqr" class="animable" style="transform-origin: 258.758px 234.171px;"><path d="M192.976,73.688c-21.564,4.15-42.358,12.987-60.801,26.847-21.736,16.336-43.946,41.785-37.386,75.073,12.11,61.454,70.206,62.573,58.607,103.893-13.139,46.804-4.328,101.706,54.63,116.973,111.982,28.998,247.351-140.675,209.331-233.908-23.67-58.043-109.88-110.915-224.381-88.878Z" style="fill: #B222CA; transform-origin: 258.758px 234.171px;" id="elv7ou5lpexr8" class="animable"></path><g id="elgp5vqjchm0n"><path d="M192.976,73.688c-21.564,4.15-42.358,12.987-60.801,26.847-21.736,16.336-43.946,41.785-37.386,75.073,12.11,61.454,70.206,62.573,58.607,103.893-13.139,46.804-4.328,101.706,54.63,116.973,111.982,28.998,247.351-140.675,209.331-233.908-23.67-58.043-109.88-110.915-224.381-88.878Z" style="fill: rgb(255, 255, 255); opacity: 0.9; transform-origin: 258.758px 234.171px;" class="animable" id="elwzd3g9xc23l"></path></g></g></g><g id="freepik--Shadow--inject-65" class="animable animator-hidden" style="transform-origin: 250px 442.24px;"><path d="M458.875,442.241c0,6.501-93.517,11.771-208.875,11.771s-208.875-5.27-208.875-11.771,93.516-11.772,208.875-11.772,208.875,5.27,208.875,11.772Z" style="fill: rgb(245, 245, 245); transform-origin: 250px 442.24px;" id="elud7vhi9dcu" class="animable"></path></g><g id="freepik--Speech_Bubble--inject-65" class="animable" style="transform-origin: 296.998px 148.336px;"><g id="ely0rsjoylwcj" class="animable" style="transform-origin: 296.998px 148.336px;"><path d="M322.795,124.013h-51.594c-4.242,0-7.681,3.439-7.681,7.682v25.488c0,4.242,3.439,7.682,7.681,7.682h36.129l.142,7.793,8.566-7.793h6.757c4.242,0,7.681-3.439,7.681-7.682v-25.488c0-4.242-3.439-7.682-7.681-7.682Z" style="fill: #B222CA; transform-origin: 296.998px 148.336px;" id="elf4sztg98k55" class="animable"></path><g id="elyhw1zrg731"><path d="M322.795,124.013h-51.594c-4.242,0-7.681,3.439-7.681,7.682v25.488c0,4.242,3.439,7.682,7.681,7.682h36.129l.142,7.793,8.566-7.793h6.757c4.242,0,7.681-3.439,7.681-7.682v-25.488c0-4.242-3.439-7.682-7.681-7.682Z" style="fill: rgb(255, 255, 255); opacity: 0.3; transform-origin: 296.998px 148.336px;" class="animable" id="elfdpyalw15sn"></path></g><g id="elj1qidp0kcy9" class="animable" style="transform-origin: 297.939px 144.7px;"><path d="M277.403,154.637c-.812,.071-1.341,.076-1.584,.016-.244-.061-.392-.167-.442-.32s-.076-.564-.076-1.234c0-1.036,.092-3.787,.274-8.255,.183-4.874,.224-7.463,.122-7.767-.163-.447-.346-.67-.549-.67-1.016-.061-1.563-.244-1.645-.548-.041-.122,.071-.233,.335-.335,.284-.101,.508-.203,.67-.305,.163-.101,.935-.233,2.315-.396,.914-.101,1.527-.137,1.843-.106,.314,.03,.686,.148,1.112,.35,.71,.325,1.324,.797,1.843,1.417,.518,.62,.776,1.193,.776,1.721,0,.305-.183,.873-.548,1.706-.366,.833-.63,1.31-.792,1.432-.366,.244-.255,.457,.335,.64,.467,.163,1.081,.635,1.843,1.417,.762,.782,1.305,1.508,1.63,2.178,.751,1.442,.842,2.823,.273,4.143-.305,.65-.711,1.309-1.218,1.979-.508,.671-.904,1.046-1.188,1.128-.264,.06-.508,.183-.73,.365-.143,.122-.533,.315-1.173,.579-.64,.264-1.184,.457-1.63,.579-.386,.122-.985,.218-1.797,.289Zm2.071-1.721c.751-.142,1.467-.427,2.147-.853,.68-.426,1.162-.903,1.446-1.432,.325-.589,.498-1.345,.518-2.269,.02-.924-.121-1.691-.426-2.3-.305-.609-.62-1.143-.944-1.6-.325-.457-.549-.685-.67-.685-.142,0-.417-.163-.823-.487-.264-.203-.497-.33-.7-.381-.203-.05-.518-.066-.944-.046l-.975,.031-.061,4.112c-.041,2.315-.112,4.001-.214,5.057-.081,.589-.051,.919,.092,.99,.142,.071,.659,.025,1.554-.137Zm-.214-11.271c.386-.244,.721-.609,1.006-1.097,.588-.914,.766-1.756,.532-2.528-.233-.771-.797-1.248-1.69-1.432-.508-.142-.833-.172-.975-.091-.06,.041-.091,.838-.091,2.391s.03,2.523,.091,2.909c.02,.061,.173,.071,.457,.03,.284-.041,.508-.101,.67-.183Z" style="fill: rgb(255, 255, 255); transform-origin: 279.5px 144.7px;" id="elsuwcjbod3mj" class="animable"></path><path d="M291.566,150.692c-.487-.122-.924-.335-1.309-.64-.386-.305-.873-.802-1.462-1.493-1.279-1.482-1.452-3.767-.519-6.854,.284-.955,.762-1.736,1.433-2.346,.811-.772,1.492-1.253,2.04-1.447,.549-.193,1.452-.289,2.711-.289,1.097,0,1.771,.026,2.026,.076,.253,.051,.634,.239,1.142,.563,.446,.285,.782,.569,1.006,.853,.223,.285,.527,.803,.913,1.554l.914,1.736-.213,2.437c-.102,.833-.203,1.412-.305,1.736-.102,.325-.315,.731-.64,1.218-.812,1.158-1.371,1.736-1.676,1.736-.102,0-.376,.183-.822,.548-.406,.325-.681,.457-.822,.396-.041-.02-.224,.051-.548,.213-.325,.163-.909,.239-1.752,.229-.843-.01-1.549-.086-2.117-.229Zm4.052-1.493c.629-.223,1.208-.701,1.736-1.432,.527-.731,.954-1.634,1.279-2.711,.324-1.056,.345-2.051,.061-2.985-.203-.731-.395-1.096-.579-1.096-.162,0-.314-.142-.456-.427-.305-.71-.914-1.208-1.828-1.493-.568-.223-1.31-.183-2.224,.122-.752,.224-1.239,.508-1.462,.853-.203,.305-.406,.559-.609,.761-.752,.874-.965,2.6-.64,5.178,.122,.894,.376,1.574,.762,2.041,.365,.426,.786,.731,1.264,.914,.478,.183,1.132,.325,1.965,.426,.264,0,.508-.05,.731-.152Z" style="fill: rgb(255, 255, 255); transform-origin: 294.073px 144.271px;" id="elzw5hx1vd41o" class="animable"></path><path d="M306.796,150.692c-.487-.122-.924-.335-1.31-.64-.386-.305-.873-.802-1.462-1.493-1.279-1.482-1.452-3.767-.518-6.854,.284-.955,.762-1.736,1.433-2.346,.811-.772,1.492-1.253,2.04-1.447,.549-.193,1.452-.289,2.711-.289,1.097,0,1.771,.026,2.026,.076,.253,.051,.634,.239,1.142,.563,.446,.285,.782,.569,1.006,.853,.223,.285,.527,.803,.913,1.554l.914,1.736-.213,2.437c-.102,.833-.203,1.412-.305,1.736-.102,.325-.315,.731-.64,1.218-.812,1.158-1.371,1.736-1.676,1.736-.101,0-.376,.183-.822,.548-.406,.325-.681,.457-.822,.396-.041-.02-.224,.051-.548,.213-.325,.163-.909,.239-1.752,.229-.843-.01-1.549-.086-2.117-.229Zm4.052-1.493c.629-.223,1.208-.701,1.736-1.432,.527-.731,.954-1.634,1.279-2.711,.324-1.056,.345-2.051,.06-2.985-.203-.731-.395-1.096-.579-1.096-.162,0-.314-.142-.456-.427-.305-.71-.914-1.208-1.828-1.493-.568-.223-1.31-.183-2.224,.122-.752,.224-1.239,.508-1.462,.853-.203,.305-.406,.559-.609,.761-.752,.874-.965,2.6-.64,5.178,.122,.894,.376,1.574,.762,2.041,.365,.426,.786,.731,1.264,.914,.477,.183,1.132,.325,1.965,.426,.264,0,.508-.05,.731-.152Z" style="fill: rgb(255, 255, 255); transform-origin: 309.303px 144.271px;" id="elij3j96u9spj" class="animable"></path><path d="M319.925,154.165c-.346-.122-.644-.416-.898-.884-.254-.467-.341-.863-.259-1.188,.081-.284,.305-.609,.67-.975,.527-.528,1.102-.716,1.721-.563,.619,.152,1.02,.584,1.203,1.294,.062,.305-.01,.676-.213,1.112-.203,.437-.487,.777-.853,1.02-.487,.305-.944,.366-1.371,.183Zm.335-6.397c-.163-.081-.295-.883-.395-2.406-.122-1.563-.285-3.117-.487-4.661-.184-1.665-.234-2.812-.152-3.442,.08-.751,.111-1.208,.091-1.371-.041-.244,.03-.437,.213-.579,.184-.142,.492-.269,.93-.38,.436-.112,.686-.117,.746-.016,.081,.122,.233,.183,.457,.183,.162,0,.259,.06,.289,.183,.03,.122,.016,.467-.046,1.036,0,.122-.025,.457-.076,1.005-.051,.548-.086,.914-.106,1.096-.02,.143-.071,.604-.152,1.386-.081,.782-.152,1.406-.213,1.873-.224,1.808-.376,3.188-.457,4.143-.041,.487-.076,.853-.106,1.096-.03,.244-.071,.457-.122,.64-.051,.183-.106,.27-.167,.259-.061-.01-.143-.025-.244-.046Z" style="fill: rgb(255, 255, 255); transform-origin: 320.561px 144.554px;" id="el9yacyqjh10h" class="animable"></path></g></g></g><g id="freepik--Ghost_2--inject-65" class="animable" style="transform-origin: 359.404px 297.303px;"><g id="el85w2zkx276o" class="animable" style="transform-origin: 359.404px 297.303px;"><g id="elrkyw1zliz4r" class="animable" style="transform-origin: 359.404px 297.303px;"><path d="M242.893,296.939c-6.454,11.861,6.355,19.03,11.088,21.444,7.201,3.673,20.334,5.408,20.334,5.408l6.952-22.523c-4.883-6.311-31.92-16.19-38.374-4.329Z" style="fill: #B222CA; transform-origin: 261.19px 307.588px;" id="el1txf9q66ikg" class="animable"></path><g id="elbokia1oszwk"><g style="opacity: 0.5; transform-origin: 261.19px 307.588px;" class="animable" id="elpsshvn6hl"><path d="M242.893,296.939c-6.454,11.861,6.355,19.03,11.088,21.444,7.201,3.673,20.334,5.408,20.334,5.408l6.952-22.523c-4.883-6.311-31.92-16.19-38.374-4.329Z" style="fill: rgb(255, 255, 255); transform-origin: 261.19px 307.588px;" id="el2nbgl80huye" class="animable"></path></g></g><g id="elzyjn80zn1j"><path d="M258.792,291.636c-.519-.064,5.049,27.114,8.934,31.01l6.589,1.145-13.126-31.798-2.397-.358Z" style="opacity: 0.3; transform-origin: 266.537px 307.713px;" class="animable" id="elcb7nd7hmyot"></path></g><path d="M381.868,248.026c10.63,23.495,31.408,58.044,62.7,67.618,9.577,2.93,19.959,3.716,27.797,10.988,3.241,3.007,5.345,7.151,5.329,11.573-.038,10.436-10.711,15.412-19.905,18.54,1.398,5.024,.189,10.699-3.136,14.716-3.325,4.017-8.674,6.266-13.871,5.831-.38,5.424-3.794,10.3-8.163,13.538-4.368,3.238-9.623,5.044-14.874,6.455-27.686,7.442-63.814,8.747-88.548-5.75-43.435-25.458-56.782-68.558-56.782-68.558-4.976-12.424-9.669-24.123-12.863-37.213-4.038-16.55-7.67-34.024-3.067-50.426,2.162-7.704,6.06-14.699,11.115-20.856,13.406-16.329,29.207-23.184,50.325-22.559,23.03,.682,48.09,21.069,63.941,56.104Z" style="fill: #B222CA; transform-origin: 366.016px 297.303px;" id="elqgdrsdm9j6" class="animable"></path><g id="elv5z358yrsjd"><g style="opacity: 0.5; transform-origin: 366.016px 297.303px;" class="animable" id="elr4fki5etru"><path d="M381.868,248.026c10.63,23.495,31.408,58.044,62.7,67.618,9.577,2.93,19.959,3.716,27.797,10.988,3.241,3.007,5.345,7.151,5.329,11.573-.038,10.436-10.711,15.412-19.905,18.54,1.398,5.024,.189,10.699-3.136,14.716-3.325,4.017-8.674,6.266-13.871,5.831-.38,5.424-3.794,10.3-8.163,13.538-4.368,3.238-9.623,5.044-14.874,6.455-27.686,7.442-63.814,8.747-88.548-5.75-43.435-25.458-56.782-68.558-56.782-68.558-4.976-12.424-9.669-24.123-12.863-37.213-4.038-16.55-7.67-34.024-3.067-50.426,2.162-7.704,6.06-14.699,11.115-20.856,13.406-16.329,29.207-23.184,50.325-22.559,23.03,.682,48.09,21.069,63.941,56.104Z" style="fill: rgb(255, 255, 255); transform-origin: 366.016px 297.303px;" id="ely3k0vaqtesg" class="animable"></path></g></g><g id="elsqwycchl5gn"><g style="opacity: 0.3; transform-origin: 427.673px 360.334px;" class="animable" id="el3gws3ij37wl"><path d="M469.395,324.252c-2.018,1.173-35.85-9.16-43.482-4.405-1.974,1.23-1.535,4.66-.262,6.606,1.219,1.864,3.51,2.639,5.395,3.825,1.885,1.186,3.566,3.528,2.55,5.51-.976,1.906-3.586,2.005-5.718,2.205-2.132,.201-4.773,1.548-4.342,3.646,.229,1.114,1.266,1.835,2.104,2.605,3.551,3.263,4.125,8.993,2.074,13.359-2.051,4.365-6.278,7.421-10.834,9.002-4.556,1.582-9.456,1.85-14.279,1.878-7.17,.042-15.164-.127-20.441,4.727-3.377,3.107-4.957,7.949-4.401,12.504,.594,4.867,3.709,11.782,7.87,16.365,11.152-.447,22.13-2.109,32.118-4.794,5.251-1.411,10.505-3.217,14.874-6.455,4.368-3.238,7.783-8.114,8.163-13.538,5.196,.435,10.546-1.814,13.871-5.831,3.325-4.017,4.534-9.692,3.136-14.716,9.194-3.128,19.868-8.104,19.905-18.54,.016-4.421-2.088-8.566-5.329-11.573-.954-.885-1.948-1.671-2.971-2.38Z" id="el0ytsybn4ih0i" class="animable" style="transform-origin: 427.673px 360.334px;"></path></g></g><path d="M449.487,331.435c2.022,.775,2.567,4.033,1.618,5.98s-3.222,3.016-5.388,2.968c-2.11-.047-4.34-1.108-4.525-3.844-.083-1.222,.341-2.433,1.078-3.41l.044-.058c1.394-1.831,3.762-2.621,5.974-1.982l1.199,.346Z" style="fill: #B222CA; transform-origin: 446.37px 335.627px;" id="eligpovzetusl" class="animable"></path><path d="M456.717,332.173c-.252-1.007,.876-2.116,1.901-2.28,1.025-.163,2.07,.435,2.646,1.298,.562,.841,.759,2.007-.263,2.833-.456,.369-1.048,.535-1.635,.515h-.035c-1.102-.045-2.063-.757-2.421-1.8l-.194-.566Z" style="fill: #B222CA; transform-origin: 459.204px 332.203px;" id="el6vwxbptky5" class="animable"></path><g id="eli5xq48ccwd" class="animable" style="transform-origin: 302.288px 262.692px;"><g id="el3wfk7g7opu6" class="animable" style="transform-origin: 299.631px 269.151px;"><path d="M311.233,260.132c-7.068,2.421-15.627,4.562-23.072,5.186l-.695,.307c1.601,4.513,4.463,10.513,9.044,11.905s9.99,.079,13.096-3.566c3.106-3.644,2.158-9.187,1.626-13.833Z" style="fill: rgb(38, 50, 56); transform-origin: 299.631px 269.102px;" id="elxilw0vpnwx" class="animable"></path><path d="M295.49,277.132c8.87,3.464,15.128-2.514,15.861-6.563-3.145,.426-5.957,.458-9.986,2.29-2.535,1.153-4.474,2.596-5.875,4.272Z" style="fill: rgb(220, 87, 83); transform-origin: 303.42px 274.37px;" id="el29p6lo9lss6" class="animable"></path></g><g id="elked2bqrkmab" class="animable" style="transform-origin: 300.473px 256.398px;"><g id="elikvg45pn0db" class="animable" style="transform-origin: 300.473px 256.398px;"><path d="M327.577,252.284c1.101,5.641-.887,10.987-4.443,11.941-3.554,.954-7.327-2.845-8.428-8.485-1.102-5.64,.886-10.986,4.441-11.941,3.554-.954,7.327,2.845,8.43,8.485Z" style="fill: rgb(38, 50, 56); transform-origin: 321.141px 254.012px;" id="eln9m7pfjsuhk" class="animable"></path><path d="M273.068,258.358c.058,5.734,3.083,10.559,6.758,10.777,3.673,.219,6.604-4.251,6.545-9.984-.057-5.733-3.082-10.559-6.756-10.778-3.673-.219-6.604,4.251-6.548,9.985Z" style="fill: rgb(38, 50, 56); transform-origin: 279.719px 258.754px;" id="elutlrqi7j46h" class="animable"></path></g><path d="M280.192,254.68c.221,1.93-.209,3.565-.961,3.651-.752,.086-1.541-1.409-1.762-3.34-.221-1.931,.21-3.565,.962-3.651s1.541,1.409,1.762,3.34Z" style="fill: rgb(255, 255, 255); transform-origin: 278.831px 254.836px;" id="eltzlufbl5d8q" class="animable"></path><path d="M319.846,249.972c.221,1.93-.209,3.565-.961,3.651-.752,.086-1.541-1.409-1.762-3.339-.221-1.931,.209-3.565,.962-3.651,.752-.086,1.541,1.409,1.762,3.34Z" style="fill: rgb(255, 255, 255); transform-origin: 318.485px 250.128px;" id="eljg2uffiwxyk" class="animable"></path></g><path d="M281.012,277.03c.248,2.166-2.347,4.242-5.797,4.637-3.449,.395-6.447-1.041-6.695-3.207-.248-2.166,2.347-4.242,5.797-4.637,3.449-.395,6.447,1.041,6.695,3.207Z" style="fill: rgb(238, 193, 187); transform-origin: 274.766px 277.745px;" id="elzdings3769a" class="animable"></path><path d="M336.056,268.436c.248,2.166-2.347,4.242-5.797,4.637-3.449,.395-6.447-1.041-6.695-3.207-.248-2.166,2.347-4.242,5.796-4.637,3.449-.395,6.447,1.041,6.695,3.207Z" style="fill: rgb(238, 193, 187); transform-origin: 329.81px 269.151px;" id="ello686o3yst" class="animable"></path></g><g id="elpf0ivam44o"><g style="opacity: 0.5; transform-origin: 446.37px 335.627px;" class="animable" id="eloi99po40ujk"><path d="M449.487,331.435c2.022,.775,2.567,4.033,1.618,5.98s-3.222,3.016-5.388,2.968c-2.11-.047-4.34-1.108-4.525-3.844-.083-1.222,.341-2.433,1.078-3.41l.044-.058c1.394-1.831,3.762-2.621,5.974-1.982l1.199,.346Z" style="fill: rgb(255, 255, 255); transform-origin: 446.37px 335.627px;" id="elhcge91uk2qc" class="animable"></path></g></g><g id="elfxrrnaada9k"><g style="opacity: 0.5; transform-origin: 459.204px 332.203px;" class="animable" id="elurg49swsgo"><path d="M456.717,332.173c-.252-1.007,.876-2.116,1.901-2.28,1.025-.163,2.07,.435,2.646,1.298,.562,.841,.759,2.007-.263,2.833-.456,.369-1.048,.535-1.635,.515h-.035c-1.102-.045-2.063-.757-2.421-1.8l-.194-.566Z" style="fill: rgb(255, 255, 255); transform-origin: 459.204px 332.203px;" id="elaztx1tutmv" class="animable"></path></g></g><path d="M285.978,220.176c-1.38,7.712,3.184,15.385,10.78,17.561,3.61,1.035,7.73,.708,10.932-1.349,2.941-1.889,4.934-5.323,4.661-8.871-.254-3.296-2.669-6.327-5.925-7.104-2.667-.636-6.735,.8-6.301,4.159,.458,3.541,5.822,5.031,8.704,5.504,3.747,.616,7.648-.057,10.58-2.583,3.087-2.658,4.347-6.807,2.776-10.63-1.814-4.413-6.115-6.849-10.112-8.999-.708-.381-1.34,.698-.631,1.079,3.001,1.614,6.176,3.294,8.262,6.08,1.883,2.515,2.583,5.696,1.169,8.6-3.112,6.395-11.441,6.425-16.988,3.499-1.29-.681-3.025-1.958-2.43-3.655,.532-1.519,2.501-2.117,3.941-1.972,3.024,.305,5.452,3.055,5.704,6.021,.602,7.1-7.308,10.588-13.276,9.205-7.274-1.685-11.954-8.88-10.642-16.215,.141-.787-1.064-1.124-1.205-.332h0Z" style="fill: rgb(38, 50, 56); transform-origin: 304.298px 223.046px;" id="els2jxy755vv" class="animable"></path></g><g id="el3yl1qj06cts" class="animable" style="transform-origin: 341.52px 307.998px;"><g id="el91f4eb8xjl" class="animable" style="transform-origin: 331.163px 310.41px;"><path d="M361.675,284.377c-5.18-6.283-13.969-9.015-22.02-7.793-7.731,1.174-14.832,5.846-19.091,12.388-6.879,.434-12.523-.396-21.013,8.147-4.605,4.633-7.137,10.833-6.499,17.334,1.091,11.118,6.135,22.817,16.213,27.638,5.087,2.433,10.962,2.852,16.548,2.074s10.945-2.693,16.192-4.76c5.426-2.138,10.833-4.48,15.556-7.901,4.723-3.421,8.762-8.027,10.594-13.563,2.039-6.158,1.208-12.891-.264-19.208-1.194-5.125-2.869-10.295-6.216-14.355Z" style="fill: rgb(38, 50, 56); transform-origin: 331.163px 310.41px;" id="elp4cswpwygpf" class="animable"></path><path d="M319.74,291.644s-1.843-6.315-3.97-7.841-3.231-2.178-3.231-2.178l8.555-3.428s.584,11.058,.798,11.593c.214,.535-2.152,1.855-2.152,1.855Z" style="fill: rgb(38, 50, 56); transform-origin: 317.222px 284.921px;" id="eljg7wtpr0pn" class="animable"></path><g id="elfo58w9mcleu"><g style="opacity: 0.3; transform-origin: 331.163px 310.41px;" class="animable" id="eld4izjf3c0pg"><path d="M361.675,284.377c-5.18-6.283-13.969-9.015-22.02-7.793-7.731,1.174-14.832,5.846-19.091,12.388-6.879,.434-12.523-.396-21.013,8.147-4.605,4.633-7.137,10.833-6.499,17.334,1.091,11.118,6.135,22.817,16.213,27.638,5.087,2.433,10.962,2.852,16.548,2.074s10.945-2.693,16.192-4.76c5.426-2.138,10.833-4.48,15.556-7.901,4.723-3.421,8.762-8.027,10.594-13.563,2.039-6.158,1.208-12.891-.264-19.208-1.194-5.125-2.869-10.295-6.216-14.355Z" style="fill: rgb(255, 255, 255); transform-origin: 331.163px 310.41px;" id="el60vwzp7voqq" class="animable"></path></g></g><g id="elrq3516nlqdi"><path d="M335.771,341.699c-16.799,0-25.946-15.56-28.457-23.908-3.193-10.617-4.005-21.439,11.542-28.676,.124-.059,.274-.004,.332,.121,.059,.125,.004,.273-.121,.332-15.202,7.076-14.402,17.677-11.274,28.078,2.51,8.344,11.749,24.011,28.711,23.543h.007c.135,0,.246,.107,.25,.243,.004,.138-.105,.253-.243,.257-.25,.007-.499,.01-.746,.01Z" style="fill: rgb(255, 255, 255); opacity: 0.3; transform-origin: 321.097px 315.395px;" class="animable" id="elgj54ix8yoe"></path></g><path d="M303.679,317.43c-.041-.299-1.358-8.822,9.581-10.002,7.015-.757,8.734,7.008,8.734,7.008l-18.315,2.994Z" id="elpakh2qqhl4p" class="animable" style="transform-origin: 312.802px 312.403px;"></path><path d="M333.978,307.129c-.169-.251-5.111-7.317,4.185-13.203,5.961-3.775,10.93,2.435,10.93,2.435l-15.114,10.768Z" id="elc6yg9efuji" class="animable" style="transform-origin: 340.804px 299.919px;"></path><g id="elfl96pmgstxi"><path d="M354.256,333.974c-.041,0-.083-.01-.121-.031-.121-.066-.164-.219-.098-.34,3.392-6.131,6.646-14.845,5.608-20.917-4.911-28.716-22.881-27.547-23.062-27.534-.027,.006-.058,0-.086-.008-4.136-1.116-11.431,1.934-15.35,3.57l-.134-.215-.06-.246c3.963-1.655,11.322-4.735,15.634-3.603,1.043-.046,18.682-.515,23.549,27.951,1.061,6.199-2.23,15.038-5.663,21.243-.046,.082-.131,.129-.219,.129Zm-33.241-45.475h0Z" style="fill: rgb(255, 255, 255); opacity: 0.3; transform-origin: 340.646px 309.19px;" class="animable" id="elr0pl0qz09w"></path></g><g id="eljfyhvywcr3p"><path d="M340.539,340.919c-.111,0-.213-.075-.242-.188-4.497-17.614-11.243-34.609-20.052-50.513-.066-.121-.023-.272,.098-.34,.119-.068,.273-.022,.34,.098,8.829,15.94,15.591,32.976,20.099,50.632,.034,.134-.047,.27-.181,.304-.021,.005-.041,.008-.062,.008Z" style="fill: rgb(255, 255, 255); opacity: 0.3; transform-origin: 330.502px 315.383px;" class="animable" id="el01qvp150fjb1"></path></g><path d="M324.324,312.326c1.422,1.546,3.617,2.422,5.685,1.761,2.01-.642,3.347-2.662,2.873-4.768-.177-.784-1.382-.452-1.205,.332,.344,1.531-.782,2.922-2.222,3.295-1.597,.414-3.173-.337-4.246-1.504-.546-.594-1.428,.292-.884,.884h0Z" id="el5jcac3f1bna" class="animable" style="transform-origin: 328.566px 311.591px;"></path></g><g id="elgaggey3c18p" class="animable" style="transform-origin: 369.595px 289.532px;"><g id="ellrpebqcpo1a"><g style="opacity: 0.3; transform-origin: 369.595px 289.532px;" class="animable" id="elm9605trydnj"><path d="M375.593,271.477c-7.97,.392-31.544,16.911-25.511,28.991,6.033,12.08,19.242,5.679,23.931,3.179,7.133-3.803,16.072-13.58,16.072-13.58-5.547,2.646-9.987,7.124-15.165,10.434-5.178,3.31-11.899,5.406-17.416,2.7-2.066-1.013-3.881-2.774-4.421-5.011-.622-2.573-1.413-3.469,.658-8.145,3.87-8.739,21.854-18.569,21.854-18.569Z" id="eloqe8ddlu4vp" class="animable" style="transform-origin: 369.595px 289.532px;"></path></g></g><path d="M375.593,271.477s-17.983,9.83-21.854,18.569c-2.071,4.676-1.279,5.572-.658,8.145,.54,2.237,2.355,3.997,4.421,5.011,5.517,2.706,12.238,.61,17.416-2.7s9.618-7.788,15.165-10.434l-14.491-18.591Z" style="fill: #B222CA; transform-origin: 371.241px 287.96px;" id="elgk3sztmf7wa" class="animable"></path><g id="el0ddyje9j0d9l"><g style="opacity: 0.5; transform-origin: 371.241px 287.96px;" class="animable" id="elmd0cwn6nuts"><path d="M375.593,271.477s-17.983,9.83-21.854,18.569c-2.071,4.676-1.279,5.572-.658,8.145,.54,2.237,2.355,3.997,4.421,5.011,5.517,2.706,12.238,.61,17.416-2.7s9.618-7.788,15.165-10.434l-14.491-18.591Z" style="fill: rgb(255, 255, 255); transform-origin: 371.241px 287.96px;" id="elm6b8wdgh8t" class="animable"></path></g></g></g></g></g></g><g id="freepik--Ghost_1--inject-65" class="animable" style="transform-origin: 150.39px 190.42px;"><g id="el153mzvlxjdi" class="animable" style="transform-origin: 150.39px 190.42px;"><path d="M258.264,173.41c-2.552-3.305-7.513-3.175-11.639-2.529-9.703,1.518-19.231,4.15-28.337,7.828l-4.713,23.096c13.139-1.673,25.921-6.102,37.278-12.918,2.785-1.671,5.569-3.569,7.288-6.325,1.718-2.756,2.108-6.58,.123-9.151Z" style="fill: #B222CA; transform-origin: 236.586px 186.16px;" id="eltk7cmswtvsk" class="animable"></path><g id="elog86y3stpn"><g style="opacity: 0.3; transform-origin: 236.586px 186.16px;" class="animable" id="elr0kkziwm6w"><path d="M258.264,173.41c-2.552-3.305-7.513-3.175-11.639-2.529-9.703,1.518-19.231,4.15-28.337,7.828l-4.713,23.096c13.139-1.673,25.921-6.102,37.278-12.918,2.785-1.671,5.569-3.569,7.288-6.325,1.718-2.756,2.108-6.58,.123-9.151Z" style="fill: rgb(255, 255, 255); transform-origin: 236.586px 186.16px;" id="el0ebr8m9m9mn" class="animable"></path></g></g><path d="M74.066,229.034c14.706,15.865,39.478,37.552,60.355,43.222,24.408,6.629,53.705,4.145,74.165-5.207,20.161-9.216,31.713-23.577,33.428-48.59s-11.788-50.812-34.015-62.413c-13.135-6.855-28.198-8.715-42.611-12.147-14.414-3.432-29.3-9.161-38.016-21.143-4.674-6.426-7.647-14.666-14.603-18.508-7.769-4.291-18.876-.376-22.237,7.837-.922,2.253-1.752,5.133-4.139,5.607-3.275,.651-4.898-3.68-6.985-6.287-3.305-4.129-10.05-4.259-14.319-1.138-4.269,3.121-6.257,8.633-6.38,13.919-.123,5.287,1.362,10.464,2.834,15.543-2.639-4.003-8.763-4.61-12.818-2.053s-6.159,7.452-6.532,12.231c0,0-9.842,34.122,31.874,79.125Z" style="fill: #B222CA; transform-origin: 141.671px 189.238px;" id="elk6cg58py1ck" class="animable"></path><g id="elkptxfdhlbyq"><g style="opacity: 0.3; transform-origin: 141.671px 189.238px;" class="animable" id="elm77brqr196r"><path d="M74.066,229.034c14.706,15.865,39.478,37.552,60.355,43.222,24.408,6.629,53.705,4.145,74.165-5.207,20.161-9.216,31.713-23.577,33.428-48.59s-11.788-50.812-34.015-62.413c-13.135-6.855-28.198-8.715-42.611-12.147-14.414-3.432-29.3-9.161-38.016-21.143-4.674-6.426-7.647-14.666-14.603-18.508-7.769-4.291-18.876-.376-22.237,7.837-.922,2.253-1.752,5.133-4.139,5.607-3.275,.651-4.898-3.68-6.985-6.287-3.305-4.129-10.05-4.259-14.319-1.138-4.269,3.121-6.257,8.633-6.38,13.919-.123,5.287,1.362,10.464,2.834,15.543-2.639-4.003-8.763-4.61-12.818-2.053s-6.159,7.452-6.532,12.231c0,0-9.842,34.122,31.874,79.125Z" style="fill: rgb(255, 255, 255); transform-origin: 141.671px 189.238px;" id="elhwk1n7km54" class="animable"></path></g></g><path d="M105.434,242.309c-6.523,5.069-12.297,11.101-17.076,17.84-2.81,3.962-5.337,9.158-3.102,13.471,2.435,4.7,8.933,5.29,14.144,4.359,9.393-1.677,26.603-10.862,33.309-17.649" style="fill: #B222CA; transform-origin: 108.554px 260.33px;" id="elhqg9r9rnuu" class="animable"></path><g id="elqrnb51o0sm" class="animable" style="transform-origin: 176.617px 171.532px;"><g id="elxuljwci8cld"><ellipse cx="176.617" cy="182.633" rx="52.94" ry="27.963" style="opacity: 0.3; transform-origin: 176.617px 182.633px; transform: rotate(-7.76deg);" class="animable" id="elmkvm7du6ula"></ellipse></g><g id="elfvghkc229ms"><ellipse cx="176.617" cy="165.43" rx="52.94" ry="27.963" style="fill: rgb(38, 50, 56); transform-origin: 176.617px 165.43px; transform: rotate(-7.76deg);" class="animable" id="eln1yaaeizh9i"></ellipse></g><g id="el190437lozfj"><ellipse cx="176.617" cy="165.43" rx="52.94" ry="27.963" style="opacity: 0.3; transform-origin: 176.617px 165.43px; transform: rotate(-7.76deg);" class="animable" id="el3axiuzodb1p"></ellipse></g><path d="M156.446,163.424l11.675-36.068c.611-1.888,3.039-2.401,4.362-.923l26.954,30.112c.823,.919,.885,2.288,.135,3.268-4.045,5.289-18.102,19.947-41.908,6.666-1.08-.603-1.6-1.879-1.219-3.056Z" style="fill: rgb(38, 50, 56); transform-origin: 178.209px 148.736px;" id="elxsvm1v6qcn" class="animable"></path><path d="M158.885,155.888s7.422,5.306,20.286,3.511c11.036-1.54,14.182-9.65,14.182-9.65l7.442,8.314s-14.747,26.41-45.45,8.177l3.54-10.352Z" style="fill: #B222CA; transform-origin: 178.07px 161.203px;" id="elkf4d8aa47kd" class="animable"></path></g><g id="elai33ajskwrj" class="animable" style="transform-origin: 206.727px 236.564px;"><g id="elvpzjx5nofsr" class="animable" style="transform-origin: 207.485px 242.887px;"><path d="M217.75,232.778c-6.576,3.719-14.684,7.432-21.964,9.421l-.634,.435c2.42,4.23,6.366,9.719,11.173,10.276,4.807,.556,9.938-1.75,12.353-5.971,2.415-4.221,.455-9.602-.927-14.16Z" style="fill: rgb(38, 50, 56); transform-origin: 207.485px 242.885px;" id="elfqtda8pmq4b" class="animable"></path><path d="M205.237,252.697c9.448,1.848,14.565-5.288,14.549-9.48-3.046,1.003-5.833,1.549-9.499,4.123-2.307,1.62-3.967,3.421-5.05,5.357Z" style="fill: rgb(220, 87, 83); transform-origin: 212.512px 248.107px;" id="elmx3ijryfyfq" class="animable"></path></g><path d="M176.746,238.456c.772,5.791,4.405,10.289,8.115,10.048,3.709-.24,6.09-5.127,5.318-10.917-.771-5.789-4.403-10.289-8.113-10.049-3.709,.24-6.09,5.128-5.32,10.918Z" style="fill: rgb(38, 50, 56); transform-origin: 183.463px 238.021px;" id="elc2x45bpksq" class="animable"></path><path d="M183.429,233.842c.462,1.924,.234,3.631-.509,3.813s-1.72-1.231-2.182-3.155c-.462-1.924-.234-3.631,.509-3.813,.743-.181,1.72,1.231,2.182,3.156Z" style="fill: rgb(255, 255, 255); transform-origin: 182.083px 234.171px;" id="el2r4d2ekpy5i" class="animable"></path><g id="elgh5podf7wn" class="animable" style="transform-origin: 225.145px 223.66px;"><path d="M231.562,221.612c1.363,5.693-.405,11.224-3.95,12.355-3.543,1.131-7.521-2.566-8.883-8.258-1.364-5.691,.404-11.223,3.948-12.355,3.543-1.131,7.521,2.565,8.886,8.258Z" style="fill: rgb(38, 50, 56); transform-origin: 225.145px 223.66px;" id="el0v4arhmvk2m" class="animable"></path><path d="M223.658,219.608c.309,1.955-.052,3.639-.807,3.76-.755,.122-1.618-1.365-1.927-3.32-.309-1.955,.052-3.639,.807-3.76,.755-.121,1.618,1.365,1.927,3.32Z" style="fill: rgb(255, 255, 255); transform-origin: 222.291px 219.828px;" id="eltxzf918t8s" class="animable"></path></g><path d="M185.325,255.935c-.001,2.22-2.846,4.03-6.355,4.042-3.508,.012-6.352-1.778-6.351-3.998,.001-2.22,2.846-4.03,6.355-4.042,3.508-.012,6.352,1.778,6.351,3.998Z" style="fill: rgb(238, 193, 187); transform-origin: 178.972px 255.957px;" id="elhch6y60njbb" class="animable"></path><path d="M233.403,235.623c.91,2.025,3.189,1.481,5.156,.708l2.276-8.572c-3.194,1.451-8.342,5.839-7.432,7.864Z" style="fill: rgb(238, 193, 187); transform-origin: 237.066px 232.393px;" id="elza1mxf0pkk" class="animable"></path></g><g id="elai5j477k8ki"><path d="M229.209,174.86c1.164,.572,7.931,10.902,10.026,19.958l2.925-1.308c1.421-.126-7.73-19.79-9.202-19.723l-3.749,1.073Z" style="opacity: 0.3; transform-origin: 235.759px 184.302px;" class="animable" id="el3e7e5z3hnkf"></path></g><g id="el69nyl1f6uzn"><polygon points="96.538 250.2 108.553 241.003 91.441 245.917 96.538 250.2" style="opacity: 0.3; transform-origin: 99.997px 245.602px;" class="animable" id="elcznqnmcrsha"></polygon></g><g id="elkp16tsb82bp"><polygon points="123.065 267.869 127.079 269.694 136.788 257.832 123.065 267.869" style="opacity: 0.3; transform-origin: 129.926px 263.763px;" class="animable" id="el9pyr5lg6o06"></polygon></g><g id="elfthvt8972vk"><g style="opacity: 0.3; transform-origin: 82.4037px 135.506px;" class="animable" id="el6m4kx410hk3"><path d="M87.57,162.419c3.904-1.88,6.346-6.412,5.77-10.706-.42-3.133-2.229-5.877-3.462-8.788-1.233-2.911-1.822-6.505,.039-9.061,2.313-3.175,7.101-3.092,10.85-1.919,3.749,1.173,7.482,3.129,11.374,2.601,3.892-.529,7.357-5.325,4.871-8.366-1.236-1.512-3.543-2.09-4.275-3.9-.951-2.349,1.556-4.744,4.017-5.347,2.058-.504,4.285-.39,6.277-1.015-2.774-4.616-5.637-9.115-10.261-11.669-7.769-4.291-18.876-.376-22.237,7.837-.922,2.253-1.752,5.133-4.139,5.607-3.275,.65-4.898-3.68-6.985-6.287-3.305-4.129-10.05-4.259-14.319-1.138-4.269,3.121-6.257,8.633-6.38,13.919s1.362,10.464,2.834,15.543c-2.639-4.003-8.763-4.61-12.818-2.053-4.055,2.557-6.159,7.452-6.532,12.231,0,0-.036,.127-.091,.355l.091-.355c-1.011,6.574-.517,14.663,5.231,17.54,5.748,2.878,13.672-.282,15.862-6.325,.922-2.543,1.325-5.866,3.874-6.773,1.733-.616,3.666,.325,4.966,1.626,1.3,1.301,2.204,2.95,3.476,4.278,2.999,3.128,8.064,4.043,11.968,2.163Z" id="el2h43g6z2l5k" class="animable" style="transform-origin: 82.4037px 135.506px;"></path></g></g><path d="M86.736,130.197c0,2.957-2.397,5.355-5.355,5.355s-5.355-2.397-5.355-5.355,2.397-5.355,5.355-5.355,5.355,2.397,5.355,5.355Z" style="fill: #B222CA; transform-origin: 81.381px 130.197px;" id="eld67lexiv5ki" class="animable"></path><g id="el474xzhibflo"><g style="opacity: 0.3; transform-origin: 108.554px 260.33px;" class="animable" id="elpha7ldm0hja"><path d="M105.434,242.309c-6.523,5.069-12.297,11.101-17.076,17.84-2.81,3.962-5.337,9.158-3.102,13.471,2.435,4.7,8.933,5.29,14.144,4.359,9.393-1.677,26.603-10.862,33.309-17.649" style="fill: rgb(255, 255, 255); transform-origin: 108.554px 260.33px;" id="eleuxtd9ucssr" class="animable"></path></g></g><g id="elqt1p71766d"><path d="M86.736,130.197c0,2.957-2.397,5.355-5.355,5.355s-5.355-2.397-5.355-5.355,2.397-5.355,5.355-5.355,5.355,2.397,5.355,5.355Z" style="fill: rgb(255, 255, 255); opacity: 0.3; transform-origin: 81.381px 130.197px;" class="animable" id="elh6qpeo4au0p"></path></g></g></g><defs>     <filter id="active" height="200%">         <feMorphology in="SourceAlpha" result="DILATED" operator="dilate" radius="2"></feMorphology>                <feFlood flood-color="#32DFEC" flood-opacity="1" result="PINK"></feFlood>        <feComposite in="PINK" in2="DILATED" operator="in" result="OUTLINE"></feComposite>        <feMerge>            <feMergeNode in="OUTLINE"></feMergeNode>            <feMergeNode in="SourceGraphic"></feMergeNode>        </feMerge>    </filter>    <filter id="hover" height="200%">        <feMorphology in="SourceAlpha" result="DILATED" operator="dilate" radius="2"></feMorphology>                <feFlood flood-color="#ff0000" flood-opacity="0.5" result="PINK"></feFlood>        <feComposite in="PINK" in2="DILATED" operator="in" result="OUTLINE"></feComposite>        <feMerge>            <feMergeNode in="OUTLINE"></feMergeNode>            <feMergeNode in="SourceGraphic"></feMergeNode>        </feMerge>            <feColorMatrix type="matrix" values="0   0   0   0   0                0   1   0   0   0                0   0   0   0   0                0   0   0   1   0 "></feColorMatrix>    </filter></defs></svg>